<?xml version="1.0" encoding="utf-8"?>
<!-- Generator: Adobe Illustrator 15.1.0, SVG Export Plug-In . SVG Version: 6.00 Build 0)  -->
<!DOCTYPE svg PUBLIC "-//W3C//DTD SVG 1.1//EN" "http://www.w3.org/Graphics/SVG/1.1/DTD/svg11.dtd">
<svg version="1.1" id="Ebene_1" xmlns="http://www.w3.org/2000/svg" xmlns:xlink="http://www.w3.org/1999/xlink" x="0px" y="0px"
	 width="290px" height="55px" viewBox="0 0 290 55" enable-background="new 0 0 290 55" xml:space="preserve">
<g>
	<path fill="#3BC2D8" d="M280.137,32.131v3.055h4.943v-4.943h-3.055C280.718,30.241,280.137,30.822,280.137,32.131"/>
	<path fill="#252525" d="M256.366,27.479c0,2.689,0.872,4.652,2.617,6.033c1.672,1.382,4.216,2.108,7.705,2.108
		c3.635,0,6.324-0.653,8.143-1.963c1.963-1.454,2.906-3.489,2.906-6.18c0-1.816-0.581-3.271-1.744-4.361
		c-1.235-1.019-3.344-1.963-6.396-2.688c-0.218,0-0.509,0-0.799-0.072c-0.291-0.073-0.582-0.146-0.945-0.291
		c-3.126-0.654-4.725-1.454-4.725-2.473c0-0.728,0.29-1.234,0.799-1.599c0.582-0.364,1.527-0.51,2.689-0.51
		c1.235,0,2.253,0.291,2.979,0.8c0.219,0.219,0.51,0.51,0.728,0.729c0.581,1.018,1.454,1.524,2.617,1.524h3.854
		c-0.146-2.397-1.092-4.36-2.835-5.888c-1.892-1.381-4.362-2.107-7.487-2.107c-2.908,0-5.234,0.728-7.052,2.107
		c-1.744,1.525-2.617,3.417-2.617,5.671c0,1.815,0.582,3.271,1.816,4.36c1.092,1.091,3.199,2.035,6.397,2.834
		c0.509,0.146,1.381,0.365,2.472,0.511c2.544,0.509,3.78,1.381,3.78,2.471c0,0.728-0.364,1.31-1.091,1.745
		c-0.8,0.438-1.745,0.654-2.835,0.654c-1.526,0-2.689-0.291-3.635-0.872c-0.872-0.582-1.31-1.527-1.382-2.688h-6.179v0.145H256.366z
		 M248.151,35.185h6.325V7.053c0-0.873-0.291-1.527-0.873-2.108c-0.581-0.581-1.309-0.872-2.181-0.872h-3.271V35.185L248.151,35.185
		z M244.227,31.258c0.872-1.381,1.309-3.271,1.309-5.67v-8.213c0-2.183-0.872-3.854-2.616-5.09
		c-1.672-1.163-4.217-1.744-7.561-1.744c-2.979,0-5.307,0.728-6.979,2.107c-1.454,1.234-2.326,2.763-2.545,4.58h6.033
		c0.29-0.654,0.8-1.092,1.453-1.383c0.654-0.217,1.382-0.362,2.254-0.362c0.801,0,1.673,0.146,2.544,0.437
		c0.945,0.291,1.382,0.873,1.382,1.746c0,1.234-1.309,1.961-3.998,2.325c-0.51,0.072-1.019,0.146-1.453,0.218
		c-0.438,0.072-0.8,0.146-1.091,0.146c-2.326,0.362-4.145,1.09-5.67,2.181c-1.454,1.092-2.182,2.907-2.182,5.452
		c0,2.688,0.8,4.651,2.472,5.813c1.6,1.164,3.562,1.746,5.671,1.746c1.09,0,2.325-0.074,3.779-0.219
		c1.381-0.146,2.763-0.582,3.998-1.236C242.336,33.586,243.354,32.641,244.227,31.258 M239.72,25.299
		c0,1.672-0.509,2.98-1.454,3.998c-0.945,0.944-2.326,1.453-3.998,1.453c-1.018,0-1.817-0.218-2.326-0.727
		c-0.509-0.51-0.8-1.236-0.8-2.182c0-0.654,0.218-1.309,0.654-1.963c0.509-0.509,1.235-0.871,2.326-1.162l2.107-0.438
		c1.526-0.363,2.689-0.727,3.489-1.163L239.72,25.299L239.72,25.299z M216.967,9.088h6.324V7.197c0-0.872-0.291-1.6-0.872-2.18
		c-0.582-0.582-1.31-0.873-2.182-0.873h-3.271V9.088z M216.967,35.185h6.324V14.176c0-0.873-0.291-1.6-0.872-2.181
		c-0.582-0.582-1.31-0.872-2.182-0.872h-3.271V35.185z M214.35,30.459h-1.89c-1.236,0-1.817-0.508-1.817-1.525V15.559h0.654
		c0.872,0,1.599-0.291,2.181-0.872c0.581-0.582,0.872-1.31,0.872-2.183V11.27h-3.707V7.198c0-0.872-0.291-1.599-0.872-2.18
		c-0.582-0.582-1.309-0.873-2.107-0.873h-3.271V30.75c0,2.762,1.163,4.217,3.489,4.436c2.326,0.146,4.507,0.218,6.47,0.072
		L214.35,30.459L214.35,30.459z M201.773,21.082c0-4.217-1.09-7.051-3.344-8.433c-2.253-1.382-4.652-2.108-7.342-2.108
		c-2.617,0.146-4.943,0.873-7.124,2.254c-2.107,1.381-3.198,4.145-3.198,8.215v14.103h6.324V19.774c0-1.453,0.437-2.472,1.235-3.198
		c0.872-0.654,1.817-1.018,2.907-1.018c1.091,0,2.035,0.363,2.908,1.018c0.872,0.654,1.308,1.745,1.308,3.198v12.284
		c0,0.873,0.291,1.673,0.873,2.182c0.581,0.581,1.31,0.872,2.182,0.872h3.197V21.084h0.073V21.082z M164.265,17.084
		c0.872-0.873,1.963-1.236,3.271-1.236c1.454,0,2.546,0.438,3.346,1.236c0.727,0.801,1.163,1.963,1.234,3.635h-9.23
		C162.956,19.119,163.393,17.956,164.265,17.084 M172.043,28.206c-0.364,0.29-0.654,0.509-0.654,0.728
		c-0.146,0.146-0.364,0.363-0.509,0.509c-0.146,0.146-0.291,0.291-0.511,0.291c-0.727,0.437-1.599,0.653-2.615,0.653
		c-1.601,0-2.764-0.508-3.489-1.453c-0.872-0.873-1.309-2.254-1.382-4.145h15.63c0.072-0.145,0.072-0.363,0.072-0.654v-0.362V23.19
		c0-3.998-0.945-7.052-2.908-9.306c-1.962-2.18-4.797-3.271-8.433-3.271c-3.417,0-6.105,1.091-8.068,3.344
		c-1.891,2.181-2.835,5.161-2.835,9.015c0,4.07,0.944,7.123,2.908,9.306c1.962,2.253,4.578,3.344,8.067,3.344
		c2.835,0,5.161-0.728,7.052-2.108c1.891-1.309,3.125-3.271,3.779-5.814h-4.507C172.987,27.77,172.479,27.916,172.043,28.206
		 M133.733,27.479c0,2.689,0.873,4.652,2.617,6.033c1.672,1.382,4.216,2.108,7.705,2.108c3.635,0,6.324-0.653,8.142-1.963
		c1.963-1.454,2.908-3.489,2.908-6.18c0-1.816-0.582-3.271-1.745-4.361c-1.234-1.019-3.344-1.963-6.396-2.688
		c-0.22,0-0.509,0-0.8-0.072c-0.291-0.073-0.582-0.146-0.945-0.291c-3.126-0.654-4.726-1.454-4.726-2.473
		c0-0.728,0.291-1.234,0.801-1.599c0.581-0.364,1.525-0.51,2.688-0.51c1.235,0,2.253,0.291,2.98,0.8
		c0.218,0.219,0.509,0.51,0.727,0.729c0.582,1.018,1.454,1.524,2.617,1.524h3.853c-0.146-2.397-1.091-4.36-2.835-5.888
		c-1.89-1.381-4.36-2.107-7.486-2.107c-2.908,0-5.234,0.728-7.051,2.107c-1.745,1.525-2.617,3.417-2.617,5.671
		c0,1.815,0.581,3.271,1.816,4.36c1.09,1.091,3.198,2.035,6.396,2.834c0.509,0.146,1.381,0.365,2.472,0.511
		c2.544,0.509,3.78,1.381,3.78,2.471c0,0.728-0.363,1.31-1.091,1.745c-0.801,0.438-1.744,0.654-2.835,0.654
		c-1.526,0-2.689-0.291-3.636-0.872c-0.872-0.582-1.309-1.527-1.381-2.688h-6.179v0.145H133.733z M110.835,27.479
		c0,2.689,0.873,4.652,2.617,6.033c1.672,1.382,4.217,2.108,7.705,2.108c3.635,0,6.323-0.653,8.143-1.963
		c1.963-1.454,2.907-3.489,2.907-6.18c0-1.816-0.581-3.271-1.745-4.361c-1.235-1.019-3.345-1.963-6.396-2.688
		c-0.219,0-0.509,0-0.8-0.072c-0.29-0.073-0.581-0.146-0.944-0.291c-3.127-0.654-4.726-1.454-4.726-2.473
		c0-0.728,0.291-1.234,0.8-1.599c0.582-0.364,1.526-0.51,2.689-0.51c1.236,0,2.254,0.291,2.979,0.8
		c0.219,0.219,0.509,0.51,0.728,0.729c0.582,1.018,1.454,1.524,2.616,1.524h3.854c-0.146-2.397-1.091-4.36-2.836-5.888
		c-1.891-1.381-4.361-2.107-7.487-2.107c-2.907,0-5.233,0.728-7.051,2.107c-1.745,1.525-2.617,3.417-2.617,5.671
		c0,1.815,0.581,3.271,1.817,4.36c1.09,1.091,3.197,2.035,6.396,2.834c0.511,0.146,1.382,0.365,2.474,0.511
		c2.543,0.509,3.778,1.381,3.778,2.471c0,0.728-0.362,1.31-1.09,1.745c-0.801,0.438-1.745,0.654-2.836,0.654
		c-1.526,0-2.688-0.291-3.635-0.872c-0.871-0.582-1.31-1.527-1.382-2.688h-6.178v0.145H110.835z M94.843,17.084
		c0.873-0.873,1.963-1.236,3.271-1.236c1.453,0,2.543,0.438,3.344,1.236c0.727,0.801,1.162,1.963,1.235,3.635h-9.231
		C93.534,19.119,93.971,17.956,94.843,17.084 M102.62,28.206c-0.363,0.29-0.653,0.509-0.653,0.728
		c-0.146,0.146-0.363,0.363-0.509,0.509c-0.146,0.146-0.291,0.291-0.51,0.291c-0.727,0.437-1.6,0.653-2.617,0.653
		c-1.599,0-2.762-0.508-3.562-1.453c-0.872-0.873-1.308-2.254-1.381-4.145h15.629c0.071-0.145,0.071-0.363,0.071-0.654v-0.362V23.19
		c0-3.998-0.944-7.052-2.907-9.306c-1.962-2.18-4.797-3.271-8.433-3.271c-3.416,0-6.105,1.091-8.068,3.344
		c-1.891,2.181-2.835,5.161-2.835,9.015c0,4.07,0.944,7.123,2.907,9.306c1.964,2.253,4.58,3.344,8.07,3.344
		c2.834,0,5.16-0.728,7.051-2.108c1.89-1.309,3.125-3.271,3.779-5.814h-4.507C103.565,27.77,103.058,27.916,102.62,28.206"/>
	<path fill="#3BC2D8" d="M77.542,28.496c-0.873,1.236-2.182,1.891-3.854,1.891c-1.6,0-2.908-0.653-3.779-1.891
		c-0.873-1.162-1.236-2.98-1.236-5.523c0-2.182,0.437-3.854,1.381-5.161c0.872-1.235,2.181-1.816,3.854-1.816
		c1.6,0,2.834,0.654,3.707,1.89s1.381,2.908,1.381,5.09C78.851,25.371,78.415,27.26,77.542,28.496 M67.655,4.871
		C67.073,4.291,66.347,4,65.475,4h-3.053v20.717c0,4.289,1.235,7.196,3.708,8.65c2.471,1.525,5.16,2.254,8.068,2.254
		c1.526,0,3.053-0.291,4.58-0.801c1.526-0.508,2.762-1.309,3.635-2.471c1.817-2.326,2.689-5.379,2.689-9.16
		c0-3.707-0.872-6.76-2.689-9.158c-1.816-2.326-4.144-3.562-6.979-3.562c-1.6,0-2.908,0.291-3.998,0.873
		c-1.236,0.728-2.254,1.672-2.908,2.834v-7.27C68.601,6.254,68.237,5.525,67.655,4.871 M45.63,17.084
		c0.873-0.873,1.963-1.236,3.271-1.236c1.454,0,2.544,0.438,3.345,1.236c0.727,0.801,1.162,1.963,1.235,3.635h-9.231
		C44.394,19.119,44.829,17.956,45.63,17.084 M53.48,28.206c-0.364,0.29-0.653,0.509-0.653,0.728
		c-0.146,0.146-0.365,0.363-0.51,0.509c-0.146,0.146-0.291,0.291-0.509,0.291c-0.728,0.437-1.599,0.653-2.617,0.653
		c-1.599,0-2.762-0.508-3.562-1.453c-0.872-0.873-1.309-2.254-1.381-4.145h15.629c0.072-0.145,0.072-0.363,0.072-0.654v-0.362V23.19
		c0-3.998-0.945-7.052-2.908-9.306c-1.963-2.18-4.797-3.271-8.433-3.271c-3.417,0-6.106,1.091-8.069,3.344
		c-1.89,2.181-2.834,5.161-2.834,9.015c0,4.07,0.944,7.123,2.908,9.306c1.961,2.253,4.579,3.344,8.068,3.344
		c2.835,0,5.161-0.728,7.051-2.108c1.891-1.309,3.125-3.271,3.78-5.814h-4.507C54.426,27.77,53.845,27.916,53.48,28.206
		 M38.216,11.123h-3.998c-1.6,0-2.544,0.727-2.908,2.182l-3.344,14.466l-3.271-16.646h-6.396l-3.417,16.646l-3.78-16.646h-6.18
		l6.615,24.062h6.324l3.709-17.155l3.706,17.155H31.6L38.216,11.123z"/>
	<path fill="#555555" d="M278.974,49.214h-0.945v0.945h0.945V49.214z M275.12,46.234h-3.198V43.98h3.562v-0.728h-4.507v6.905h4.579
		v-0.728h-3.635v-2.472h3.199V46.234L275.12,46.234z M265.234,43.254h-0.943v6.905h4.216v-0.728h-3.271L265.234,43.254
		L265.234,43.254z M257.529,43.98h1.744c0.438,0,0.8,0.145,1.02,0.363c0.218,0.291,0.362,0.582,0.362,0.944
		c0,0.363-0.146,0.728-0.362,0.945c-0.22,0.217-0.582,0.363-1.02,0.363h-1.744V43.98z M259.273,47.396
		c0.729,0,1.31-0.218,1.745-0.581c0.438-0.364,0.581-0.872,0.581-1.526c0-0.653-0.218-1.091-0.581-1.526
		c-0.437-0.363-0.945-0.581-1.745-0.581h-2.616v6.904h0.944v-2.762h1.672V47.396z M252.877,47.324c0,0.654-0.146,1.163-0.51,1.6
		c-0.362,0.437-0.8,0.581-1.381,0.581c-0.51,0-0.944-0.218-1.309-0.581c-0.291-0.437-0.509-0.944-0.509-1.6v-1.236
		c0-0.653,0.145-1.161,0.509-1.525c0.29-0.438,0.727-0.581,1.309-0.581c0.581,0,1.019,0.218,1.381,0.581
		c0.363,0.437,0.51,0.945,0.51,1.525V47.324z M253.749,46.088c0-0.871-0.291-1.525-0.801-2.106
		c-0.509-0.582-1.234-0.873-2.034-0.873c-0.801,0-1.454,0.291-1.964,0.873c-0.509,0.581-0.727,1.235-0.727,2.106v1.236
		c0,0.872,0.218,1.526,0.727,2.107c0.51,0.582,1.163,0.801,1.964,0.801c0.8,0,1.525-0.291,2.034-0.801
		c0.51-0.581,0.801-1.235,0.801-2.107V46.088z M245.535,46.234h-3.198V43.98h3.562v-0.728h-4.507v6.905h4.579v-0.728h-3.635v-2.472
		h3.198L245.535,46.234L245.535,46.234z M234.631,43.98h1.672c0.437,0,0.8,0.145,1.018,0.363c0.22,0.291,0.364,0.582,0.364,0.944
		c0,0.363-0.146,0.728-0.364,0.945c-0.218,0.217-0.581,0.363-1.018,0.363h-1.672V43.98z M236.376,47.396
		c0.727,0,1.309-0.218,1.743-0.581c0.438-0.364,0.582-0.872,0.582-1.526c0-0.653-0.219-1.091-0.582-1.526
		c-0.436-0.363-0.944-0.581-1.743-0.581h-2.617v6.904h0.945v-2.762h1.672V47.396z M226.78,46.742h-2.472v0.729h1.526v1.599
		c-0.072,0.146-0.291,0.219-0.51,0.363c-0.218,0.072-0.58,0.146-0.944,0.146c-0.581,0-1.019-0.219-1.381-0.582
		c-0.363-0.363-0.51-0.873-0.51-1.525v-1.454c0-0.582,0.146-1.09,0.51-1.526c0.291-0.364,0.728-0.581,1.309-0.581
		c0.509,0,0.945,0.146,1.163,0.363s0.437,0.581,0.437,1.018h0.872l0,0c0-0.582-0.218-1.091-0.728-1.526
		c-0.437-0.363-1.09-0.581-1.89-0.581c-0.801,0-1.454,0.29-1.964,0.8c-0.509,0.509-0.727,1.234-0.727,2.035v1.454
		c0,0.872,0.291,1.525,0.8,2.034c0.509,0.51,1.235,0.801,2.035,0.801c0.654,0,1.163-0.072,1.6-0.291s0.728-0.437,0.872-0.728
		L226.78,46.742L226.78,46.742z M218.565,43.254h-0.943v5.308l0,0l-3.345-5.308h-0.944v6.905h0.944v-5.307l0,0l3.345,5.38h0.943
		V43.254z M210.134,43.254h-0.945v6.905h0.945V43.254z M202.428,43.98h1.672c0.437,0,0.8,0.145,1.019,0.363
		c0.219,0.291,0.363,0.582,0.363,0.944c0,0.363-0.146,0.728-0.363,0.945c-0.219,0.217-0.582,0.363-1.019,0.363h-1.672V43.98z
		 M204.1,47.396c0.728,0,1.309-0.218,1.745-0.581c0.437-0.364,0.581-0.872,0.581-1.526c0-0.653-0.218-1.091-0.581-1.526
		c-0.438-0.363-0.945-0.581-1.745-0.581h-2.616v6.904h0.944v-2.762h1.672V47.396z M197.704,47.324c0,0.654-0.146,1.163-0.51,1.6
		c-0.362,0.437-0.8,0.581-1.381,0.581c-0.509,0-0.945-0.218-1.309-0.581c-0.291-0.437-0.51-0.944-0.51-1.6v-1.236
		c0-0.653,0.146-1.161,0.51-1.525c0.29-0.438,0.727-0.581,1.309-0.581c0.581,0,1.019,0.218,1.381,0.581
		c0.363,0.437,0.51,0.945,0.51,1.525V47.324z M198.648,46.088c0-0.871-0.291-1.525-0.8-2.106c-0.509-0.582-1.236-0.873-2.035-0.873
		c-0.8,0-1.454,0.291-1.963,0.873c-0.509,0.581-0.728,1.235-0.728,2.106v1.236c0,0.872,0.219,1.526,0.728,2.107
		c0.509,0.582,1.163,0.801,1.963,0.801c0.799,0,1.526-0.291,2.035-0.801c0.509-0.581,0.8-1.235,0.8-2.107V46.088z M187.745,43.254
		H186.8v6.905h4.217v-0.728h-3.271L187.745,43.254L187.745,43.254z M183.745,46.234h-3.197V43.98h3.562v-0.728h-4.507v6.905h4.58
		v-0.728h-3.635v-2.472h3.197V46.234L183.745,46.234z M172.333,43.254h-1.019l2.545,6.905h0.799l2.546-6.905h-1.019l-1.817,5.16
		l-0.146,0.582l0,0l-0.146-0.582L172.333,43.254z M169.062,46.234h-3.199V43.98h3.562v-0.728h-4.507v6.905h4.579v-0.728h-3.636
		v-2.472h3.199L169.062,46.234L169.062,46.234z M159.176,43.98c0.654,0,1.163,0.218,1.525,0.654c0.364,0.436,0.582,0.944,0.582,1.6
		v0.944c0,0.653-0.218,1.163-0.582,1.599c-0.362,0.437-0.871,0.654-1.525,0.654h-1.163V43.98H159.176z M159.176,50.159
		c0.872,0,1.6-0.291,2.181-0.8c0.582-0.582,0.8-1.236,0.8-2.181v-0.944c0-0.873-0.291-1.6-0.8-2.182
		c-0.581-0.582-1.309-0.8-2.181-0.8h-2.108v6.905L159.176,50.159L159.176,50.159z M150.017,49.214h-0.945v0.945h0.945V49.214z
		 M146.091,46.234h-3.198V43.98h3.562v-0.728h-4.508v6.905h4.579v-0.728h-3.635v-2.472h3.198L146.091,46.234L146.091,46.234z
		 M135.042,44.053h1.6c0.509,0,0.799,0.071,1.09,0.291c0.218,0.218,0.363,0.509,0.363,0.871c0,0.438-0.146,0.729-0.363,0.945
		s-0.581,0.29-1.163,0.29h-1.454v-2.397H135.042z M136.786,47.179c0.364,0,0.654,0.146,0.873,0.362
		c0.219,0.219,0.29,0.51,0.29,0.872v0.654c0,0.219,0,0.437,0.073,0.654c0,0.219,0.146,0.362,0.218,0.51h0.945v-0.146
		c-0.146-0.071-0.218-0.218-0.218-0.436c-0.073-0.146-0.073-0.363-0.073-0.582v-0.654c0-0.436-0.072-0.727-0.218-1.018
		c-0.146-0.291-0.438-0.509-0.8-0.581c0.362-0.146,0.653-0.364,0.8-0.654c0.218-0.291,0.291-0.581,0.291-0.945
		c0-0.652-0.219-1.091-0.582-1.453c-0.363-0.363-0.945-0.509-1.744-0.509h-2.472v6.905h0.943v-2.979H136.786z M128.646,44.489
		L128.646,44.489l1.162,3.126h-2.326L128.646,44.489z M130.753,50.159h0.944l-2.616-6.905h-0.799l-2.689,6.905h0.945l0.652-1.745
		h2.908L130.753,50.159z M116.868,43.254h-0.943l1.672,6.905h0.8l1.382-4.798l0.146-0.654l0,0l0.146,0.654l1.381,4.798h0.801
		l1.672-6.905h-0.944l-1.019,4.507l-0.146,0.872l0,0l-0.218-0.872l-1.309-4.507h-0.801l-1.234,4.507l-0.219,0.872l0,0l-0.146-0.872
		L116.868,43.254z M113.96,43.254h-5.379v0.728h2.182v6.179h0.945v-6.179h2.252V43.254z M106.183,46.379h-3.125v-2.397h3.635v-0.728
		h-4.58v6.905h0.945v-3.054h3.125V46.379z M98.26,47.324c0,0.654-0.146,1.163-0.509,1.6s-0.799,0.581-1.381,0.581
		c-0.51,0-0.945-0.218-1.31-0.581c-0.291-0.437-0.509-0.944-0.509-1.6v-1.236c0-0.653,0.145-1.161,0.509-1.525
		c0.291-0.438,0.728-0.581,1.31-0.581s1.018,0.218,1.381,0.581c0.363,0.437,0.509,0.945,0.509,1.525V47.324z M99.204,46.088
		c0-0.871-0.291-1.525-0.799-2.106c-0.51-0.582-1.236-0.873-2.035-0.873c-0.801,0-1.455,0.291-1.963,0.873
		c-0.51,0.581-0.728,1.235-0.728,2.106v1.236c0,0.872,0.218,1.526,0.728,2.107c0.508,0.582,1.162,0.801,1.963,0.801
		c0.799,0,1.525-0.291,2.035-0.801c0.508-0.581,0.799-1.235,0.799-2.107V46.088z M89.827,49.287
		c-0.291,0.218-0.653,0.291-1.09,0.291c-0.509,0-0.873-0.146-1.236-0.364c-0.291-0.218-0.508-0.581-0.508-1.018H86.12l0,0
		c0,0.654,0.217,1.163,0.799,1.526c0.51,0.362,1.164,0.582,1.818,0.582c0.727,0,1.307-0.146,1.816-0.511
		c0.436-0.362,0.654-0.799,0.654-1.308s-0.219-0.945-0.582-1.309s-0.944-0.581-1.672-0.801c-0.582-0.145-1.018-0.362-1.308-0.509
		c-0.291-0.218-0.437-0.437-0.437-0.728c0-0.363,0.146-0.581,0.363-0.8c0.219-0.219,0.582-0.29,1.09-0.29s0.873,0.146,1.164,0.362
		c0.291,0.219,0.436,0.582,0.436,1.019h0.873l0,0c0-0.581-0.219-1.019-0.654-1.453c-0.438-0.438-1.018-0.654-1.816-0.654
		c-0.728,0-1.31,0.146-1.746,0.509c-0.436,0.363-0.653,0.8-0.653,1.381c0,0.51,0.218,0.945,0.582,1.31
		c0.437,0.363,0.944,0.581,1.745,0.8c0.582,0.146,1.018,0.291,1.236,0.509c0.217,0.219,0.362,0.51,0.362,0.8
		C90.264,48.777,90.118,49.068,89.827,49.287 M79.505,46.742h-2.473v0.729h1.526v1.599c-0.073,0.146-0.291,0.219-0.509,0.363
		c-0.219,0.072-0.582,0.146-0.945,0.146c-0.582,0-1.018-0.219-1.381-0.582s-0.509-0.873-0.509-1.525v-1.454
		c0-0.582,0.146-1.09,0.509-1.526c0.291-0.364,0.727-0.581,1.309-0.581c0.51,0,0.945,0.146,1.164,0.363
		c0.291,0.29,0.436,0.581,0.436,1.018h0.873l0,0c0-0.582-0.219-1.091-0.727-1.526c-0.437-0.363-1.091-0.581-1.891-0.581
		c-0.799,0-1.454,0.29-1.962,0.8c-0.509,0.509-0.728,1.234-0.728,2.035v1.454c0,0.872,0.291,1.525,0.801,2.034
		c0.509,0.51,1.234,0.801,2.035,0.801c0.653,0,1.162-0.072,1.599-0.291c0.436-0.219,0.727-0.437,0.873-0.728L79.505,46.742
		L79.505,46.742z M71.364,43.254h-0.945v5.308l0,0l-3.344-5.308H66.13v6.905h0.945v-5.307l0,0l3.344,5.38h0.945V43.254z
		 M62.931,43.254h-0.945v6.905h0.945V43.254z M55.153,43.98h1.744c0.436,0,0.799,0.145,1.018,0.363
		c0.219,0.291,0.363,0.582,0.363,0.944c0,0.363-0.145,0.728-0.363,0.945c-0.217,0.217-0.582,0.363-1.018,0.363h-1.744V43.98z
		 M56.897,47.396c0.727,0,1.309-0.218,1.745-0.581c0.437-0.364,0.582-0.872,0.582-1.526c0-0.653-0.218-1.091-0.582-1.526
		c-0.437-0.363-0.944-0.581-1.745-0.581H54.28v6.904h0.945v-2.762h1.672V47.396z M50.428,47.324c0,0.654-0.146,1.163-0.509,1.6
		c-0.364,0.437-0.801,0.581-1.381,0.581c-0.51,0-0.945-0.218-1.31-0.581c-0.291-0.437-0.509-0.944-0.509-1.6v-1.236
		c0-0.653,0.146-1.161,0.509-1.525c0.291-0.438,0.728-0.581,1.31-0.581s1.018,0.218,1.381,0.581
		c0.363,0.437,0.509,0.945,0.509,1.525V47.324z M51.372,46.088c0-0.871-0.291-1.525-0.799-2.106
		c-0.509-0.582-1.236-0.873-2.035-0.873c-0.801,0-1.455,0.291-1.963,0.873c-0.51,0.581-0.728,1.235-0.728,2.106v1.236
		c0,0.872,0.218,1.526,0.728,2.107c0.508,0.582,1.162,0.801,1.963,0.801c0.799,0,1.525-0.291,2.035-0.801
		c0.51-0.581,0.799-1.235,0.799-2.107V46.088z M40.469,43.254h-0.945v6.905h4.216v-0.728h-3.271V43.254z M36.544,46.234h-3.199
		V43.98h3.562v-0.728h-4.508v6.905h4.58v-0.728h-3.635v-2.472h3.199V46.234L36.544,46.234z M25.058,43.254H24.04l2.543,6.905h0.801
		l2.544-6.905h-1.019l-1.816,5.16l-0.146,0.582l0,0l-0.145-0.582L25.058,43.254z M21.786,46.234h-3.197V43.98h3.562v-0.728h-4.507
		v6.905h4.58v-0.728H18.59v-2.472h3.198v-0.725H21.786z M11.9,43.98c0.654,0,1.163,0.218,1.527,0.654
		c0.362,0.436,0.582,0.944,0.582,1.6v0.944c0,0.653-0.218,1.163-0.582,1.599c-0.364,0.437-0.873,0.654-1.527,0.654h-1.163V43.98
		H11.9z M11.9,50.159c0.873,0,1.601-0.291,2.181-0.8c0.582-0.582,0.801-1.236,0.801-2.181v-0.944c0-0.873-0.291-1.6-0.801-2.182
		c-0.58-0.582-1.308-0.8-2.181-0.8H9.792v6.905L11.9,50.159L11.9,50.159z"/>
</g>
</svg>
